<mxfile host="app.diagrams.net" modified="2023-11-17T12:53:20.942Z" agent="Mozilla/5.0 (X11; Linux x86_64) AppleWebKit/537.36 (KHTML, like Gecko) Chrome/119.0.0.0 Safari/537.36" etag="ydMiDOv8A-9gZnizcwMD" version="22.1.2" type="github">
  <diagram name="Page-1" id="t9NZapT66ETzs68W3Ghi">
    <mxGraphModel dx="1364" dy="803" grid="1" gridSize="10" guides="1" tooltips="1" connect="1" arrows="1" fold="1" page="1" pageScale="1" pageWidth="827" pageHeight="1169" math="0" shadow="0">
      <root>
        <mxCell id="0" />
        <mxCell id="1" parent="0" />
        <mxCell id="uodv0N1OY3bsYXp-pheK-23" style="edgeStyle=orthogonalEdgeStyle;rounded=0;orthogonalLoop=1;jettySize=auto;html=1;exitX=0.5;exitY=1;exitDx=0;exitDy=0;entryX=0.5;entryY=0;entryDx=0;entryDy=0;" edge="1" parent="1" source="uodv0N1OY3bsYXp-pheK-1" target="uodv0N1OY3bsYXp-pheK-22">
          <mxGeometry relative="1" as="geometry" />
        </mxCell>
        <mxCell id="uodv0N1OY3bsYXp-pheK-1" value="" style="rounded=0;whiteSpace=wrap;html=1;" vertex="1" parent="1">
          <mxGeometry x="130" y="90" width="640" height="420" as="geometry" />
        </mxCell>
        <mxCell id="uodv0N1OY3bsYXp-pheK-2" value="&lt;span style=&quot;orphans: 2; text-indent: 0px; widows: 2; background-color: rgb(251, 251, 251); text-decoration-thickness: initial; text-decoration-style: initial; text-decoration-color: initial; float: none; display: inline !important;&quot;&gt;machine 1: 192.168.0.108&lt;br&gt;Discovery Server:&lt;br&gt;&lt;ul style=&quot;color: rgb(0, 0, 0); font-family: Helvetica; font-size: 12px; font-style: normal; font-variant-ligatures: normal; font-variant-caps: normal; font-weight: 400; letter-spacing: normal; text-transform: none; word-spacing: 0px; -webkit-text-stroke-width: 0px;&quot;&gt;&lt;li&gt;&lt;span style=&quot;color: rgb(0, 0, 0); font-family: Helvetica; font-size: 12px; font-style: normal; font-variant-ligatures: normal; font-variant-caps: normal; font-weight: 400; letter-spacing: normal; orphans: 2; text-indent: 0px; text-transform: none; widows: 2; word-spacing: 0px; -webkit-text-stroke-width: 0px; background-color: rgb(251, 251, 251); text-decoration-thickness: initial; text-decoration-style: initial; text-decoration-color: initial; float: none; display: inline !important;&quot;&gt;protocol: SERVER&lt;/span&gt;&lt;/li&gt;&lt;li&gt;&lt;span style=&quot;color: rgb(0, 0, 0); font-family: Helvetica; font-size: 12px; font-style: normal; font-variant-ligatures: normal; font-variant-caps: normal; font-weight: 400; letter-spacing: normal; orphans: 2; text-indent: 0px; text-transform: none; widows: 2; word-spacing: 0px; -webkit-text-stroke-width: 0px; background-color: rgb(251, 251, 251); text-decoration-thickness: initial; text-decoration-style: initial; text-decoration-color: initial; float: none; display: inline !important;&quot;&gt;GUID:&amp;nbsp;&lt;/span&gt;44.53.02.5f.45.50.52.4f.53.49.4d.41&lt;/li&gt;&lt;li&gt;port: 56544&lt;/li&gt;&lt;/ul&gt;Command: `FASTRTPS_DEFAULT_PROFILES_FILE=host_server.xml ros2 run demo_nodes_cpp listener`&lt;br&gt;&lt;/span&gt;" style="text;whiteSpace=wrap;html=1;" vertex="1" parent="1">
          <mxGeometry x="130" y="90" width="610" height="90" as="geometry" />
        </mxCell>
        <mxCell id="uodv0N1OY3bsYXp-pheK-17" style="edgeStyle=orthogonalEdgeStyle;rounded=0;orthogonalLoop=1;jettySize=auto;html=1;exitX=0.5;exitY=1;exitDx=0;exitDy=0;entryX=0.5;entryY=0;entryDx=0;entryDy=0;" edge="1" parent="1" source="uodv0N1OY3bsYXp-pheK-6" target="uodv0N1OY3bsYXp-pheK-8">
          <mxGeometry relative="1" as="geometry" />
        </mxCell>
        <mxCell id="uodv0N1OY3bsYXp-pheK-6" value="container: talker&lt;br style=&quot;border-color: var(--border-color);&quot;&gt;ip:172.18.0.2&lt;br&gt;Discovery Server:&lt;br style=&quot;border-color: var(--border-color);&quot;&gt;&lt;ul style=&quot;border-color: var(--border-color);&quot;&gt;&lt;li style=&quot;border-color: var(--border-color);&quot;&gt;&lt;span style=&quot;border-color: var(--border-color);&quot;&gt;protocol: SERVER&lt;/span&gt;&lt;/li&gt;&lt;li style=&quot;border-color: var(--border-color);&quot;&gt;&lt;span style=&quot;border-color: var(--border-color);&quot;&gt;GUID:&lt;/span&gt;44.53.00.5f.45.50.52.4f.53.49.4d.41&lt;/li&gt;&lt;li style=&quot;border-color: var(--border-color);&quot;&gt;&lt;br&gt;&lt;/li&gt;&lt;/ul&gt;" style="rounded=1;whiteSpace=wrap;html=1;align=left;" vertex="1" parent="1">
          <mxGeometry x="150" y="230" width="290" height="130" as="geometry" />
        </mxCell>
        <mxCell id="uodv0N1OY3bsYXp-pheK-7" value="port:&amp;nbsp;56540" style="rounded=1;whiteSpace=wrap;html=1;" vertex="1" parent="1">
          <mxGeometry x="190" y="400" width="120" height="40" as="geometry" />
        </mxCell>
        <mxCell id="uodv0N1OY3bsYXp-pheK-8" value="docker network:&lt;br&gt;&lt;div&gt;&lt;ul&gt;&lt;li&gt;aros-network:&lt;/li&gt;&lt;ul&gt;&lt;li&gt;&amp;nbsp;external: false&lt;/li&gt;&lt;li&gt;driver: &quot;bridge&quot;&lt;/li&gt;&lt;/ul&gt;&lt;/ul&gt;&lt;/div&gt;" style="rounded=0;whiteSpace=wrap;html=1;align=left;" vertex="1" parent="1">
          <mxGeometry x="360" y="400" width="200" height="90" as="geometry" />
        </mxCell>
        <mxCell id="uodv0N1OY3bsYXp-pheK-11" value="&lt;div style=&quot;&quot;&gt;&lt;span style=&quot;background-color: initial;&quot;&gt;port: 56543&lt;/span&gt;&lt;/div&gt;" style="rounded=0;whiteSpace=wrap;html=1;align=left;" vertex="1" parent="1">
          <mxGeometry x="190" y="325" width="120" height="20" as="geometry" />
        </mxCell>
        <mxCell id="uodv0N1OY3bsYXp-pheK-12" value="" style="endArrow=classic;startArrow=classic;html=1;rounded=0;entryX=0.5;entryY=1;entryDx=0;entryDy=0;exitX=0.5;exitY=0;exitDx=0;exitDy=0;" edge="1" parent="1" source="uodv0N1OY3bsYXp-pheK-7" target="uodv0N1OY3bsYXp-pheK-11">
          <mxGeometry width="50" height="50" relative="1" as="geometry">
            <mxPoint x="390" y="360" as="sourcePoint" />
            <mxPoint x="440" y="310" as="targetPoint" />
          </mxGeometry>
        </mxCell>
        <mxCell id="uodv0N1OY3bsYXp-pheK-18" style="edgeStyle=orthogonalEdgeStyle;rounded=0;orthogonalLoop=1;jettySize=auto;html=1;exitX=0.5;exitY=1;exitDx=0;exitDy=0;entryX=0.5;entryY=0;entryDx=0;entryDy=0;" edge="1" parent="1" source="uodv0N1OY3bsYXp-pheK-13" target="uodv0N1OY3bsYXp-pheK-8">
          <mxGeometry relative="1" as="geometry" />
        </mxCell>
        <mxCell id="uodv0N1OY3bsYXp-pheK-13" value="container: listener&lt;br style=&quot;border-color: var(--border-color);&quot;&gt;ip:172.18.0.3&lt;br&gt;Discovery Server:&lt;br style=&quot;border-color: var(--border-color);&quot;&gt;&lt;ul style=&quot;border-color: var(--border-color);&quot;&gt;&lt;li style=&quot;border-color: var(--border-color);&quot;&gt;&lt;span style=&quot;border-color: var(--border-color);&quot;&gt;protocol: SERVER&lt;/span&gt;&lt;/li&gt;&lt;li style=&quot;border-color: var(--border-color);&quot;&gt;&lt;span style=&quot;border-color: var(--border-color);&quot;&gt;GUID:&lt;/span&gt;44.53.01.5f.45.50.52.4f.53.49.4d.41&lt;/li&gt;&lt;li style=&quot;border-color: var(--border-color);&quot;&gt;&lt;br&gt;&lt;/li&gt;&lt;/ul&gt;" style="rounded=1;whiteSpace=wrap;html=1;align=left;" vertex="1" parent="1">
          <mxGeometry x="470" y="230" width="290" height="130" as="geometry" />
        </mxCell>
        <mxCell id="uodv0N1OY3bsYXp-pheK-14" value="port:&amp;nbsp;56541" style="rounded=1;whiteSpace=wrap;html=1;" vertex="1" parent="1">
          <mxGeometry x="590" y="400" width="120" height="40" as="geometry" />
        </mxCell>
        <mxCell id="uodv0N1OY3bsYXp-pheK-15" value="&lt;div style=&quot;&quot;&gt;&lt;span style=&quot;background-color: initial;&quot;&gt;port: 56543&lt;/span&gt;&lt;/div&gt;" style="rounded=0;whiteSpace=wrap;html=1;align=left;" vertex="1" parent="1">
          <mxGeometry x="510" y="325" width="120" height="20" as="geometry" />
        </mxCell>
        <mxCell id="uodv0N1OY3bsYXp-pheK-16" value="" style="endArrow=classic;startArrow=classic;html=1;rounded=0;entryX=0.5;entryY=1;entryDx=0;entryDy=0;exitX=0.5;exitY=0;exitDx=0;exitDy=0;" edge="1" parent="1" source="uodv0N1OY3bsYXp-pheK-14" target="uodv0N1OY3bsYXp-pheK-15">
          <mxGeometry width="50" height="50" relative="1" as="geometry">
            <mxPoint x="710" y="360" as="sourcePoint" />
            <mxPoint x="760" y="310" as="targetPoint" />
          </mxGeometry>
        </mxCell>
        <mxCell id="uodv0N1OY3bsYXp-pheK-20" value="" style="rounded=0;whiteSpace=wrap;html=1;" vertex="1" parent="1">
          <mxGeometry x="130" y="660" width="640" height="130" as="geometry" />
        </mxCell>
        <mxCell id="uodv0N1OY3bsYXp-pheK-24" style="edgeStyle=orthogonalEdgeStyle;rounded=0;orthogonalLoop=1;jettySize=auto;html=1;exitX=0.5;exitY=0;exitDx=0;exitDy=0;entryX=0.5;entryY=1;entryDx=0;entryDy=0;" edge="1" parent="1" source="uodv0N1OY3bsYXp-pheK-21" target="uodv0N1OY3bsYXp-pheK-22">
          <mxGeometry relative="1" as="geometry" />
        </mxCell>
        <mxCell id="uodv0N1OY3bsYXp-pheK-21" value="&lt;span style=&quot;orphans: 2; text-indent: 0px; widows: 2; background-color: rgb(251, 251, 251); text-decoration-thickness: initial; text-decoration-style: initial; text-decoration-color: initial; float: none; display: inline !important;&quot;&gt;machine 2: 192.168.0.213&lt;br&gt;Discovery Server:&lt;br&gt;&lt;ul style=&quot;color: rgb(0, 0, 0); font-family: Helvetica; font-size: 12px; font-style: normal; font-variant-ligatures: normal; font-variant-caps: normal; font-weight: 400; letter-spacing: normal; text-transform: none; word-spacing: 0px; -webkit-text-stroke-width: 0px;&quot;&gt;&lt;li&gt;&lt;span style=&quot;color: rgb(0, 0, 0); font-family: Helvetica; font-size: 12px; font-style: normal; font-variant-ligatures: normal; font-variant-caps: normal; font-weight: 400; letter-spacing: normal; orphans: 2; text-indent: 0px; text-transform: none; widows: 2; word-spacing: 0px; -webkit-text-stroke-width: 0px; background-color: rgb(251, 251, 251); text-decoration-thickness: initial; text-decoration-style: initial; text-decoration-color: initial; float: none; display: inline !important;&quot;&gt;protocol: SERVER&lt;/span&gt;&lt;/li&gt;&lt;li&gt;&lt;span style=&quot;color: rgb(0, 0, 0); font-family: Helvetica; font-size: 12px; font-style: normal; font-variant-ligatures: normal; font-variant-caps: normal; font-weight: 400; letter-spacing: normal; orphans: 2; text-indent: 0px; text-transform: none; widows: 2; word-spacing: 0px; -webkit-text-stroke-width: 0px; background-color: rgb(251, 251, 251); text-decoration-thickness: initial; text-decoration-style: initial; text-decoration-color: initial; float: none; display: inline !important;&quot;&gt;GUID:&amp;nbsp;&lt;/span&gt;44.52.00.5f.45.50.52.4f.53.49.4d.41&lt;/li&gt;&lt;li&gt;port: 56543&lt;/li&gt;&lt;/ul&gt;Command: `FASTRTPS_DEFAULT_PROFILES_FILE=host_server.xml ros2 run demo_nodes_cpp talker`&lt;br&gt;&lt;/span&gt;" style="text;whiteSpace=wrap;html=1;" vertex="1" parent="1">
          <mxGeometry x="130" y="660" width="650" height="130" as="geometry" />
        </mxCell>
        <mxCell id="uodv0N1OY3bsYXp-pheK-22" value="router" style="ellipse;whiteSpace=wrap;html=1;" vertex="1" parent="1">
          <mxGeometry x="390" y="545" width="120" height="80" as="geometry" />
        </mxCell>
      </root>
    </mxGraphModel>
  </diagram>
</mxfile>
